<?xml version="1.0" encoding="UTF-8"?>
<!DOCTYPE svg PUBLIC "-//W3C//DTD SVG 1.1//EN" "http://www.w3.org/Graphics/SVG/1.1/DTD/svg11.dtd">
<!-- Creator: CorelDRAW 2019 (64-Bit) -->
<svg xmlns="http://www.w3.org/2000/svg" xml:space="preserve" width="300px" height="176px" version="1.1" style="shape-rendering:geometricPrecision; text-rendering:geometricPrecision; image-rendering:optimizeQuality; fill-rule:evenodd; clip-rule:evenodd"
viewBox="0 0 66.88 39.29"
 xmlns:xlink="http://www.w3.org/1999/xlink"
 xmlns:xodm="http://www.corel.com/coreldraw/odm/2003">
 <defs>
  <style type="text/css">
   <![CDATA[
    .fil0 {fill:black;fill-rule:nonzero}
   ]]>
  </style>
 </defs>
 <g id="Layer_x0020_1">
  <metadata id="CorelCorpID_0Corel-Layer"/>
  <path class="fil0" d="M32.51 18.3c-2.58,-3.08 -5.62,-4.08 -8.05,-3.59 -1.36,0.27 -2.52,1 -3.3,2.09 -0.78,1.1 -1.17,2.59 -0.95,4.35 0.52,4.22 4.4,9.82 14.18,15.52 5.7,-4.1 9.13,-7.84 10.92,-11.06 0.01,-0.14 0.04,-0.28 0.1,-0.42 0.08,-0.19 0.21,-0.35 0.37,-0.47 0.76,-1.59 1.12,-3.04 1.16,-4.32 0.04,-1.77 -0.54,-3.2 -1.49,-4.22 -0.96,-1.02 -2.3,-1.65 -3.76,-1.81 -2.51,-0.27 -5.36,0.89 -7.21,3.85 -0.36,0.56 -1.09,0.72 -1.65,0.37 -0.13,-0.08 -0.23,-0.18 -0.32,-0.29zm6.27 -6.09c-0.12,-2.3 1.34,-3.45 3.83,-4.17 1.43,-0.41 3.18,-0.65 5.18,-0.92 1.22,-0.16 2.54,-0.34 4,-0.6 5.16,-0.9 6.33,-2.76 7.19,-4.12 0.82,-1.31 1.45,-2.31 3.52,-2.4 1.84,-0.07 3.27,1.14 3.95,2.9 0.36,0.92 0.5,1.99 0.38,3.08 -0.12,1.09 -0.49,2.22 -1.19,3.24 -0.17,0.26 -0.36,0.5 -0.57,0.74 0.41,0.37 0.72,0.85 0.93,1.4 0.2,0.52 0.32,1.12 0.33,1.73 0.04,1.8 -0.77,3.87 -2.75,4.96 -0.64,0.36 -1.42,0.56 -2.26,0.64 0.64,3.78 -1.27,4.87 -3.88,4.78 -0.29,-0.01 -0.59,-0.04 -0.89,-0.08 -1.02,2.89 -2.83,4.09 -4.8,4.4 -1.61,0.26 -3.26,-0.11 -4.62,-0.59 -2.11,3.56 -5.89,7.58 -11.98,11.87l0 0c-0.37,0.26 -0.87,0.3 -1.28,0.06 -7.19,-4.08 -11.56,-8.24 -13.9,-12.02 -1.4,0.53 -3.15,0.96 -4.84,0.68 -1.97,-0.31 -3.79,-1.51 -4.81,-4.4 -0.3,0.04 -0.6,0.07 -0.88,0.08 -2.62,0.09 -4.53,-1 -3.88,-4.78 -0.85,-0.08 -1.62,-0.28 -2.26,-0.64 -1.98,-1.09 -2.8,-3.16 -2.75,-4.96 0.01,-0.61 0.12,-1.21 0.32,-1.73 0.22,-0.55 0.53,-1.03 0.93,-1.4 -0.21,-0.24 -0.4,-0.48 -0.57,-0.74 -0.69,-1.02 -1.07,-2.15 -1.19,-3.24 -0.12,-1.09 0.03,-2.16 0.38,-3.08 0.68,-1.76 2.11,-2.97 3.96,-2.9 2.06,0.09 2.69,1.09 3.52,2.4 0.85,1.36 2.02,3.22 7.19,4.12 1.46,0.26 2.78,0.44 4,0.6 1.99,0.27 3.75,0.51 5.17,0.92 2.6,0.75 4.09,1.97 3.81,4.48 1.78,0.48 3.6,1.5 5.28,3.17 1.55,-1.88 3.47,-3.01 5.43,-3.48zm9.45 12.83c1,0.33 2.13,0.56 3.14,0.39 1.12,-0.17 2.16,-0.89 2.84,-2.62 -1.29,-0.43 -2.51,-0.97 -3.36,-1.38 -0.6,-0.28 -0.85,-1 -0.56,-1.59 0.28,-0.6 0.99,-0.85 1.59,-0.57 1.01,0.48 2.58,1.18 4.05,1.56 0.02,0 0.05,0.01 0.07,0.01 0.03,0.01 0.06,0.02 0.08,0.03 0.5,0.12 0.99,0.2 1.43,0.21 1.03,0.04 1.74,-0.52 1.36,-2.43 -1.91,-0.22 -3.91,-0.83 -5.22,-1.49 -0.59,-0.29 -0.83,-1.01 -0.53,-1.6 0.29,-0.59 1.01,-0.83 1.6,-0.53 1.13,0.56 2.88,1.08 4.57,1.26 1.25,0.13 2.42,0.07 3.13,-0.32 1.09,-0.61 1.55,-1.79 1.52,-2.83 -0.01,-0.34 -0.06,-0.65 -0.17,-0.92 -0.08,-0.22 -0.19,-0.39 -0.31,-0.49 -0.11,-0.1 -0.27,-0.12 -0.49,-0.05 -2.08,1.21 -5.08,1.87 -9.24,1.45 -0.65,-0.07 -1.13,-0.65 -1.07,-1.31 0.07,-0.66 0.65,-1.14 1.31,-1.07 3.52,0.36 6.01,-0.14 7.67,-1.07 0.07,-0.05 0.14,-0.09 0.22,-0.13l0.02 -0.01c0.78,-0.47 1.36,-1.04 1.78,-1.65 0.46,-0.7 0.72,-1.44 0.8,-2.16 0.07,-0.71 -0.02,-1.4 -0.23,-1.97 -0.32,-0.82 -0.92,-1.4 -1.64,-1.37 -0.8,0.03 -1.14,0.57 -1.59,1.28 -1.1,1.74 -2.6,4.12 -8.8,5.21 -1.38,0.24 -2.79,0.43 -4.1,0.61 -1.9,0.26 -3.58,0.49 -4.82,0.85 -1.12,0.32 -1.86,0.79 -2.01,1.61 0.22,0 0.45,0.02 0.67,0.04 2.02,0.22 3.89,1.11 5.25,2.56 1.36,1.46 2.2,3.46 2.13,5.9 -0.03,1.39 -0.37,2.93 -1.09,4.59zm-22.59 -12.84c-0.05,-0.98 -0.81,-1.51 -2.04,-1.86 -1.25,-0.36 -2.92,-0.59 -4.83,-0.85 -1.31,-0.18 -2.72,-0.37 -4.1,-0.61 -6.2,-1.09 -7.7,-3.47 -8.8,-5.21 -0.44,-0.71 -0.78,-1.25 -1.58,-1.28 -0.72,-0.03 -1.32,0.55 -1.64,1.37 -0.22,0.57 -0.31,1.26 -0.23,1.97 0.08,0.72 0.33,1.46 0.8,2.16 0.41,0.61 1,1.18 1.78,1.65l0.02 0.01c0.08,0.04 0.15,0.08 0.22,0.13 1.66,0.93 4.14,1.43 7.67,1.07 0.66,-0.07 1.24,0.41 1.31,1.07 0.06,0.66 -0.42,1.24 -1.08,1.31 -4.15,0.42 -7.16,-0.24 -9.23,-1.45 -0.22,-0.07 -0.39,-0.05 -0.49,0.05 -0.13,0.1 -0.23,0.27 -0.32,0.49 -0.1,0.27 -0.16,0.58 -0.17,0.92 -0.02,1.04 0.43,2.22 1.53,2.83 0.71,0.39 1.87,0.45 3.13,0.32 1.68,-0.18 3.44,-0.7 4.56,-1.26 0.59,-0.3 1.31,-0.06 1.61,0.53 0.29,0.59 0.05,1.31 -0.54,1.6 -1.31,0.66 -3.3,1.27 -5.21,1.49 -0.38,1.91 0.33,2.47 1.35,2.43 0.44,-0.01 0.93,-0.09 1.43,-0.21 0.03,-0.01 0.06,-0.02 0.08,-0.03 0.03,0 0.05,-0.01 0.08,-0.01 1.46,-0.38 3.03,-1.08 4.04,-1.56 0.6,-0.28 1.32,-0.03 1.6,0.57 0.28,0.59 0.03,1.31 -0.57,1.59 -0.85,0.41 -2.06,0.95 -3.36,1.38 0.68,1.73 1.73,2.45 2.84,2.62 1.09,0.18 2.29,-0.09 3.34,-0.45 -0.55,-1.25 -0.87,-2.43 -1.01,-3.54 -0.29,-2.39 0.27,-4.45 1.39,-6.03 1.13,-1.59 2.82,-2.66 4.77,-3.05 0.53,-0.11 1.09,-0.16 1.65,-0.16z"/>
 </g>
</svg>
