<?xml version="1.0" encoding="UTF-8"?>
<!DOCTYPE svg PUBLIC "-//W3C//DTD SVG 1.1//EN" "http://www.w3.org/Graphics/SVG/1.1/DTD/svg11.dtd">
<!-- Creator: CorelDRAW 2019 (64-Bit) -->
<svg xmlns="http://www.w3.org/2000/svg" xml:space="preserve" width="600px" height="91px" version="1.1" style="shape-rendering:geometricPrecision; text-rendering:geometricPrecision; image-rendering:optimizeQuality; fill-rule:evenodd; clip-rule:evenodd"
viewBox="0 0 532.95 81.19"
 xmlns:xlink="http://www.w3.org/1999/xlink"
 xmlns:xodm="http://www.corel.com/coreldraw/odm/2003">
 <defs>
  <style type="text/css">
   <![CDATA[
    .fil0 {fill:black;fill-rule:nonzero}
   ]]>
  </style>
 </defs>
 <g id="Layer_x0020_1">
  <metadata id="CorelCorpID_0Corel-Layer"/>
  <path class="fil0" d="M65.02 39.22c-5.16,-6.16 -11.23,-8.15 -16.1,-7.18 -2.71,0.54 -5.05,2.01 -6.59,4.18 -1.57,2.21 -2.34,5.18 -1.91,8.7 1.03,8.44 8.79,19.65 28.36,31.04 11.41,-8.21 18.25,-15.69 21.85,-22.11 0.01,-0.28 0.07,-0.57 0.19,-0.84 0.17,-0.39 0.43,-0.72 0.74,-0.96 1.53,-3.18 2.24,-6.07 2.31,-8.64 0.1,-3.53 -1.07,-6.39 -2.98,-8.43 -1.91,-2.05 -4.59,-3.3 -7.51,-3.61 -5.02,-0.54 -10.71,1.77 -14.43,7.69 -0.7,1.11 -2.18,1.45 -3.29,0.75 -0.26,-0.16 -0.47,-0.36 -0.64,-0.59zm12.54 -12.19c-0.25,-4.59 2.69,-6.89 7.66,-8.32 2.86,-0.83 6.37,-1.31 10.35,-1.85 2.45,-0.33 5.09,-0.68 8.01,-1.2 10.32,-1.81 12.66,-5.53 14.38,-8.24 1.65,-2.63 2.91,-4.62 7.03,-4.79 3.69,-0.15 6.56,2.27 7.92,5.8 0.71,1.83 1,3.97 0.76,6.16 -0.24,2.18 -1,4.42 -2.39,6.48 -0.34,0.51 -0.71,1 -1.13,1.48 0.8,0.73 1.43,1.69 1.85,2.79 0.41,1.04 0.63,2.23 0.66,3.47 0.08,3.6 -1.55,7.72 -5.5,9.92 -1.28,0.71 -2.83,1.11 -4.53,1.28 1.29,7.56 -2.53,9.74 -7.75,9.55 -0.58,-0.02 -1.17,-0.08 -1.78,-0.16 -2.04,5.79 -5.66,8.18 -9.61,8.81 -3.2,0.51 -6.5,-0.23 -9.23,-1.2 -4.22,7.13 -11.79,15.18 -23.97,23.75l0 0c-0.73,0.51 -1.72,0.59 -2.55,0.12 -14.38,-8.16 -23.11,-16.48 -27.79,-24.03 -2.82,1.04 -6.31,1.9 -9.69,1.36 -3.95,-0.63 -7.57,-3.02 -9.61,-8.81 -0.61,0.08 -1.2,0.14 -1.78,0.16 -5.22,0.19 -9.04,-1.99 -7.75,-9.55 -1.7,-0.17 -3.25,-0.57 -4.52,-1.28 -3.96,-2.2 -5.59,-6.32 -5.51,-9.92 0.03,-1.24 0.26,-2.43 0.66,-3.47 0.42,-1.1 1.05,-2.06 1.85,-2.79 -0.41,-0.48 -0.79,-0.97 -1.13,-1.48 -1.39,-2.06 -2.15,-4.3 -2.39,-6.48 -0.24,-2.19 0.05,-4.33 0.76,-6.16 1.36,-3.53 4.23,-5.95 7.92,-5.8 4.12,0.17 5.38,2.16 7.03,4.79 1.72,2.71 4.06,6.43 14.38,8.24 2.92,0.52 5.56,0.87 8.01,1.2 3.98,0.54 7.5,1.02 10.35,1.85 5.2,1.5 8.17,3.94 7.61,8.95 3.57,0.96 7.21,3.01 10.57,6.34 3.09,-3.76 6.92,-6.02 10.85,-6.97zm18.9 25.67c2.01,0.66 4.25,1.11 6.28,0.79 2.23,-0.36 4.33,-1.79 5.68,-5.25 -2.58,-0.85 -5.02,-1.94 -6.72,-2.75 -1.19,-0.57 -1.7,-2 -1.13,-3.2 0.57,-1.19 2,-1.7 3.19,-1.13 2.02,0.96 5.17,2.37 8.1,3.12 0.05,0.01 0.09,0.02 0.14,0.03 0.06,0.01 0.11,0.03 0.17,0.04 1,0.25 1.97,0.4 2.86,0.44 2.04,0.07 3.46,-1.05 2.7,-4.87 -3.81,-0.45 -7.8,-1.66 -10.42,-2.98 -1.18,-0.59 -1.66,-2.02 -1.07,-3.2 0.59,-1.18 2.02,-1.66 3.2,-1.07 2.25,1.13 5.77,2.18 9.14,2.53 2.51,0.26 4.84,0.14 6.25,-0.65 2.2,-1.22 3.1,-3.57 3.05,-5.65 -0.01,-0.67 -0.13,-1.3 -0.34,-1.84 -0.16,-0.43 -0.37,-0.77 -0.62,-0.99 -0.22,-0.18 -0.54,-0.24 -0.98,-0.09 -4.16,2.41 -10.17,3.74 -18.47,2.9 -1.32,-0.13 -2.28,-1.3 -2.15,-2.62 0.13,-1.31 1.3,-2.27 2.61,-2.14 7.06,0.72 12.02,-0.28 15.35,-2.13 0.13,-0.1 0.28,-0.19 0.44,-0.26l0.04 -0.02c1.56,-0.95 2.72,-2.09 3.55,-3.32 0.94,-1.38 1.44,-2.87 1.6,-4.31 0.16,-1.43 -0.02,-2.79 -0.46,-3.93 -0.64,-1.66 -1.83,-2.8 -3.27,-2.75 -1.61,0.07 -2.29,1.15 -3.18,2.56 -2.19,3.49 -5.19,8.25 -17.6,10.42 -2.75,0.49 -5.57,0.87 -8.19,1.22 -3.81,0.52 -7.17,0.97 -9.66,1.69 -2.24,0.65 -3.7,1.58 -4.02,3.23 0.46,0.01 0.91,0.04 1.36,0.09 4.03,0.43 7.77,2.21 10.49,5.11 2.73,2.92 4.4,6.93 4.27,11.81 -0.08,2.77 -0.76,5.85 -2.19,9.17zm-45.18 -25.69c-0.1,-1.95 -1.63,-3 -4.08,-3.72 -2.49,-0.72 -5.85,-1.17 -9.66,-1.69 -2.62,-0.35 -5.44,-0.73 -8.19,-1.22 -12.41,-2.17 -15.41,-6.93 -17.6,-10.42 -0.89,-1.41 -1.57,-2.49 -3.18,-2.56 -1.44,-0.05 -2.63,1.09 -3.27,2.75 -0.44,1.14 -0.62,2.5 -0.46,3.93 0.16,1.44 0.67,2.93 1.6,4.31 0.83,1.23 2,2.37 3.55,3.32l0.04 0.02c0.16,0.07 0.31,0.16 0.44,0.26 3.33,1.85 8.29,2.85 15.35,2.13 1.31,-0.13 2.48,0.83 2.61,2.14 0.13,1.32 -0.83,2.49 -2.14,2.62 -8.31,0.84 -14.32,-0.49 -18.48,-2.9 -0.44,-0.15 -0.76,-0.09 -0.98,0.09 -0.24,0.22 -0.46,0.56 -0.62,0.99 -0.21,0.54 -0.33,1.17 -0.34,1.84 -0.05,2.08 0.85,4.43 3.05,5.65 1.41,0.79 3.74,0.91 6.25,0.65 3.37,-0.35 6.89,-1.4 9.14,-2.53 1.18,-0.59 2.61,-0.11 3.2,1.07 0.59,1.18 0.11,2.61 -1.07,3.2 -2.62,1.32 -6.6,2.53 -10.42,2.98 -0.76,3.82 0.66,4.94 2.7,4.87 0.89,-0.04 1.86,-0.19 2.87,-0.44 0.05,-0.01 0.1,-0.03 0.16,-0.04 0.05,-0.01 0.1,-0.02 0.15,-0.03 2.92,-0.75 6.07,-2.16 8.09,-3.12 1.19,-0.57 2.62,-0.06 3.19,1.13 0.57,1.2 0.06,2.63 -1.13,3.2 -1.7,0.81 -4.14,1.9 -6.72,2.75 1.36,3.46 3.45,4.89 5.68,5.25 2.16,0.35 4.57,-0.19 6.67,-0.92 -1.1,-2.48 -1.75,-4.85 -2.02,-7.07 -0.59,-4.77 0.54,-8.9 2.77,-12.05 2.27,-3.19 5.65,-5.34 9.56,-6.11 1.06,-0.22 2.16,-0.33 3.29,-0.33z"/>
  <path class="fil0" d="M148.49 35.3c0,-2.5 0.41,-4.85 1.23,-7.06 0.81,-2.19 1.99,-4.12 3.53,-5.76 1.55,-1.64 3.43,-2.94 5.66,-3.9 2.23,-0.95 4.73,-1.43 7.55,-1.43 2.36,0 4.39,0.3 6.08,0.91 1.7,0.6 3.1,1.45 4.19,2.53 1.09,1.09 1.91,2.38 2.46,3.88 0.55,1.51 0.85,3.14 0.91,4.92 0.04,1.23 0.01,2.32 -0.09,3.28 -0.1,0.95 -0.2,1.84 -0.32,2.66l-20.4 0c0.27,3.45 1.17,6.06 2.67,7.82 1.51,1.75 3.72,2.63 6.61,2.63 1.42,0 2.94,-0.15 4.54,-0.45 1.61,-0.31 3.21,-0.81 4.79,-1.51l1.56 3.66c-0.75,0.62 -1.65,1.19 -2.72,1.72 -1.06,0.53 -2.22,0.98 -3.47,1.35 -1.25,0.37 -2.56,0.66 -3.96,0.86 -1.39,0.21 -2.8,0.29 -4.23,0.25 -2.66,-0.06 -5,-0.46 -7.07,-1.2 -2.06,-0.74 -3.79,-1.81 -5.21,-3.2 -1.42,-1.4 -2.48,-3.1 -3.21,-5.1 -0.74,-2 -1.1,-4.29 -1.1,-6.86zm21.54 -4.68c0.06,-0.73 0.12,-1.5 0.18,-2.33 0.06,-0.83 0.05,-1.64 -0.02,-2.43 -0.07,-0.79 -0.24,-1.52 -0.51,-2.21 -0.27,-0.68 -0.7,-1.23 -1.29,-1.64 -0.35,-0.25 -0.76,-0.44 -1.23,-0.57 -0.47,-0.13 -1.02,-0.19 -1.64,-0.19 -1.13,0 -2.08,0.28 -2.84,0.84 -0.76,0.55 -1.38,1.27 -1.85,2.16 -0.48,0.89 -0.83,1.89 -1.06,3 -0.22,1.11 -0.37,2.23 -0.45,3.37l10.71 0zm12.95 16.25l3.62 -0.74 0 -19.26 -3.97 -2.81 0 -3.69 10.89 -3.22 2.17 0.56 0 4.33c0.6,-0.64 1.3,-1.25 2.11,-1.83 0.81,-0.58 1.68,-1.09 2.61,-1.54 0.93,-0.45 1.9,-0.81 2.91,-1.1 1.02,-0.28 2.03,-0.45 3.05,-0.51 1.04,-0.06 2.08,-0.03 3.1,0.09 1.01,0.12 1.95,0.35 2.82,0.7 0.87,0.35 1.65,0.85 2.35,1.48 0.69,0.64 1.25,1.43 1.68,2.39 0.61,-0.57 1.28,-1.12 2.01,-1.67 0.74,-0.55 1.56,-1.04 2.45,-1.47 0.89,-0.42 1.86,-0.77 2.91,-1.04 1.06,-0.26 2.21,-0.39 3.46,-0.39 1.92,0 3.58,0.31 4.97,0.94 1.39,0.62 2.53,1.53 3.41,2.72 0.89,1.19 1.55,2.65 1.97,4.38 0.42,1.72 0.63,3.7 0.63,5.92l0 14.96 4.09 0.8 0 3.97 -17.88 0 0 -3.97 3.43 -0.82 0 -13.62c0,-1.87 -0.12,-3.38 -0.34,-4.51 -0.23,-1.13 -0.58,-2 -1.07,-2.61 -0.49,-0.62 -1.12,-1.02 -1.89,-1.22 -0.77,-0.19 -1.69,-0.29 -2.77,-0.29 -0.68,0 -1.41,0.15 -2.2,0.45 -0.78,0.31 -1.45,0.65 -2.04,1.04 0.1,0.49 0.17,1.1 0.22,1.82 0.05,0.74 0.08,1.78 0.08,3.12l0 15.84 4.15 0.8 0 3.97 -18.67 0 0 -3.97 4.15 -0.85 0 -13.79c0,-1.88 -0.14,-3.39 -0.43,-4.53 -0.3,-1.13 -0.72,-2.01 -1.28,-2.61 -0.56,-0.61 -1.25,-0.98 -2.08,-1.13 -0.83,-0.15 -1.78,-0.18 -2.86,-0.1 -0.23,0.02 -0.53,0.07 -0.9,0.16 -0.37,0.09 -0.75,0.2 -1.12,0.34 -0.37,0.13 -0.72,0.28 -1.04,0.45 -0.32,0.17 -0.56,0.34 -0.71,0.51l0 20.73 3.83 0.82 0 3.97 -17.82 0 0 -3.97zm60.95 0l3.63 -0.74 0 -19.26 -3.98 -2.81 0 -3.69 10.89 -3.22 2.17 0.56 0 4.33c0.6,-0.64 1.31,-1.25 2.12,-1.83 0.81,-0.58 1.68,-1.09 2.61,-1.54 0.93,-0.45 1.9,-0.81 2.91,-1.1 1.01,-0.28 2.02,-0.45 3.04,-0.51 1.05,-0.06 2.09,-0.03 3.11,0.09 1.01,0.12 1.95,0.35 2.82,0.7 0.87,0.35 1.65,0.85 2.34,1.48 0.69,0.64 1.25,1.43 1.68,2.39 0.61,-0.57 1.28,-1.12 2.02,-1.67 0.74,-0.55 1.56,-1.04 2.45,-1.47 0.89,-0.42 1.86,-0.77 2.91,-1.04 1.05,-0.26 2.2,-0.39 3.45,-0.39 1.93,0 3.59,0.31 4.98,0.94 1.39,0.62 2.53,1.53 3.4,2.72 0.89,1.19 1.55,2.65 1.97,4.38 0.42,1.72 0.63,3.7 0.63,5.92l0 14.96 4.1 0.8 0 3.97 -17.88 0 0 -3.97 3.42 -0.82 0 -13.62c0,-1.87 -0.12,-3.38 -0.34,-4.51 -0.23,-1.13 -0.58,-2 -1.07,-2.61 -0.49,-0.62 -1.12,-1.02 -1.88,-1.22 -0.77,-0.19 -1.69,-0.29 -2.77,-0.29 -0.68,0 -1.41,0.15 -2.2,0.45 -0.78,0.31 -1.46,0.65 -2.05,1.04 0.1,0.49 0.17,1.1 0.22,1.82 0.05,0.74 0.08,1.78 0.08,3.12l0 15.84 4.16 0.8 0 3.97 -18.67 0 0 -3.97 4.14 -0.85 0 -13.79c0,-1.88 -0.14,-3.39 -0.43,-4.53 -0.3,-1.13 -0.72,-2.01 -1.28,-2.61 -0.56,-0.61 -1.25,-0.98 -2.08,-1.13 -0.82,-0.15 -1.77,-0.18 -2.85,-0.1 -0.23,0.02 -0.53,0.07 -0.9,0.16 -0.37,0.09 -0.75,0.2 -1.12,0.34 -0.37,0.13 -0.72,0.28 -1.04,0.45 -0.32,0.17 -0.56,0.34 -0.71,0.51l0 20.73 3.83 0.82 0 3.97 -17.83 0 0 -3.97zm60.23 -11.57c0,-2.5 0.41,-4.85 1.23,-7.06 0.82,-2.19 2,-4.12 3.54,-5.76 1.55,-1.64 3.42,-2.94 5.65,-3.9 2.23,-0.95 4.74,-1.43 7.55,-1.43 2.36,0 4.39,0.3 6.09,0.91 1.7,0.6 3.1,1.45 4.18,2.53 1.09,1.09 1.91,2.38 2.46,3.88 0.55,1.51 0.85,3.14 0.91,4.92 0.04,1.23 0.01,2.32 -0.09,3.28 -0.1,0.95 -0.2,1.84 -0.32,2.66l-20.4 0c0.27,3.45 1.17,6.06 2.68,7.82 1.51,1.75 3.71,2.63 6.6,2.63 1.42,0 2.94,-0.15 4.55,-0.45 1.61,-0.31 3.2,-0.81 4.78,-1.51l1.56 3.66c-0.75,0.62 -1.65,1.19 -2.72,1.72 -1.05,0.53 -2.21,0.98 -3.46,1.35 -1.25,0.37 -2.57,0.66 -3.97,0.86 -1.39,0.21 -2.8,0.29 -4.22,0.25 -2.66,-0.06 -5.01,-0.46 -7.08,-1.2 -2.06,-0.74 -3.78,-1.81 -5.2,-3.2 -1.42,-1.4 -2.49,-3.1 -3.22,-5.1 -0.74,-2 -1.1,-4.29 -1.1,-6.86zm21.54 -4.68c0.06,-0.73 0.12,-1.5 0.18,-2.33 0.06,-0.83 0.05,-1.64 -0.02,-2.43 -0.07,-0.79 -0.24,-1.52 -0.51,-2.21 -0.27,-0.68 -0.7,-1.23 -1.29,-1.64 -0.35,-0.25 -0.76,-0.44 -1.23,-0.57 -0.47,-0.13 -1.02,-0.19 -1.64,-0.19 -1.12,0 -2.07,0.28 -2.83,0.84 -0.76,0.55 -1.38,1.27 -1.86,2.16 -0.48,0.89 -0.83,1.89 -1.06,3 -0.22,1.11 -0.37,2.23 -0.45,3.37l10.71 0zm12.22 4.39c0,-2.62 0.5,-5.02 1.51,-7.21 1,-2.17 2.37,-4.06 4.1,-5.64 1.73,-1.58 3.74,-2.81 6.05,-3.69 2.32,-0.88 4.78,-1.32 7.39,-1.32 0.45,0 0.96,0.01 1.54,0.03 0.58,0.02 1.23,0.09 1.98,0.2l0 -7.05 -6.47 -1.67 0 -4.09 14.92 -1.43 1.91 0.79 0 42.94 4.16 0 0 3.12c-0.67,0.37 -1.74,0.74 -3.21,1.11 -1.47,0.37 -3.37,0.56 -5.69,0.56 -1.27,0 -2.3,-0.18 -3.09,-0.54 -0.79,-0.36 -1.38,-0.89 -1.77,-1.57 -0.39,0.27 -0.87,0.54 -1.42,0.79 -0.56,0.26 -1.22,0.48 -1.98,0.68 -0.76,0.19 -1.63,0.35 -2.63,0.46 -0.99,0.12 -2.12,0.18 -3.37,0.18 -1.01,0 -2.06,-0.14 -3.15,-0.41 -1.08,-0.27 -2.14,-0.7 -3.16,-1.27 -1.04,-0.58 -2.02,-1.31 -2.95,-2.19 -0.93,-0.89 -1.74,-1.95 -2.43,-3.18 -0.69,-1.23 -1.24,-2.64 -1.64,-4.23 -0.4,-1.6 -0.6,-3.38 -0.6,-5.37zm16.51 11.53c0.65,0.26 1.33,0.38 2.05,0.38 0.87,0 1.65,-0.05 2.32,-0.16 0.68,-0.1 1.24,-0.24 1.69,-0.39l0 -24.21c-0.71,-0.45 -1.45,-0.73 -2.23,-0.85 -0.78,-0.12 -1.5,-0.18 -2.19,-0.18 -0.31,0 -0.7,0.06 -1.17,0.16 -0.47,0.11 -0.97,0.31 -1.51,0.61 -0.53,0.29 -1.08,0.7 -1.62,1.24 -0.55,0.54 -1.04,1.24 -1.48,2.11 -0.44,0.87 -0.81,1.91 -1.1,3.14 -0.29,1.23 -0.45,2.69 -0.47,4.39 -0.04,1.98 0.08,3.74 0.35,5.3 0.27,1.56 0.67,2.91 1.19,4.05 0.51,1.15 1.13,2.09 1.86,2.83 0.72,0.74 1.49,1.27 2.31,1.58zm21.47 -11.24c0,-2.5 0.41,-4.85 1.23,-7.06 0.82,-2.19 2,-4.12 3.54,-5.76 1.54,-1.64 3.42,-2.94 5.65,-3.9 2.23,-0.95 4.74,-1.43 7.55,-1.43 2.36,0 4.39,0.3 6.09,0.91 1.7,0.6 3.1,1.45 4.18,2.53 1.09,1.09 1.91,2.38 2.46,3.88 0.55,1.51 0.85,3.14 0.91,4.92 0.04,1.23 0.01,2.32 -0.09,3.28 -0.1,0.95 -0.2,1.84 -0.32,2.66l-20.4 0c0.27,3.45 1.17,6.06 2.68,7.82 1.51,1.75 3.71,2.63 6.6,2.63 1.42,0 2.94,-0.15 4.55,-0.45 1.61,-0.31 3.2,-0.81 4.78,-1.51l1.56 3.66c-0.75,0.62 -1.65,1.19 -2.72,1.72 -1.05,0.53 -2.21,0.98 -3.46,1.35 -1.25,0.37 -2.57,0.66 -3.97,0.86 -1.39,0.21 -2.8,0.29 -4.22,0.25 -2.66,-0.06 -5.01,-0.46 -7.08,-1.2 -2.06,-0.74 -3.78,-1.81 -5.2,-3.2 -1.42,-1.4 -2.49,-3.1 -3.22,-5.1 -0.74,-2 -1.1,-4.29 -1.1,-6.86zm21.54 -4.68c0.06,-0.73 0.12,-1.5 0.18,-2.33 0.06,-0.83 0.05,-1.64 -0.02,-2.43 -0.07,-0.79 -0.24,-1.52 -0.51,-2.21 -0.27,-0.68 -0.7,-1.23 -1.29,-1.64 -0.35,-0.25 -0.76,-0.44 -1.23,-0.57 -0.47,-0.13 -1.02,-0.19 -1.64,-0.19 -1.12,0 -2.07,0.28 -2.83,0.84 -0.76,0.55 -1.38,1.27 -1.86,2.16 -0.48,0.89 -0.83,1.89 -1.06,3 -0.22,1.11 -0.37,2.23 -0.45,3.37l10.71 0zm15.38 -7.29l-4.45 0 0 -3.31c1.07,-0.18 2.07,-0.43 2.99,-0.76 0.92,-0.33 1.71,-0.79 2.37,-1.38 0.63,-0.57 1.25,-1.45 1.88,-2.64 0.62,-1.2 1.26,-2.86 1.9,-4.97l4.91 0 0 7.82 10.01 0 0 5.24 -9.54 0 0 10.68c0,2.62 0.06,4.69 0.18,6.22 0.11,1.53 0.31,2.7 0.58,3.5 0.28,0.8 0.64,1.32 1.1,1.55 0.46,0.24 1.04,0.35 1.74,0.35 0.4,0 0.83,-0.02 1.32,-0.07 0.49,-0.05 0.96,-0.12 1.43,-0.2 0.47,-0.09 0.91,-0.2 1.32,-0.33 0.41,-0.12 0.75,-0.26 1.02,-0.42l1.53 3.31c-0.47,0.48 -1.1,0.94 -1.89,1.38 -0.8,0.44 -1.71,0.83 -2.76,1.16 -1.03,0.33 -2.17,0.59 -3.39,0.79 -1.22,0.2 -2.48,0.29 -3.79,0.29 -1.7,0 -3.1,-0.21 -4.18,-0.64 -1.09,-0.43 -1.96,-1.09 -2.59,-1.96 -0.64,-0.88 -1.08,-1.99 -1.32,-3.35 -0.25,-1.36 -0.37,-2.97 -0.37,-4.85l0 -17.41zm29.76 -11.27c-0.76,0 -1.51,-0.13 -2.24,-0.38 -0.74,-0.25 -1.38,-0.61 -1.94,-1.08 -0.55,-0.47 -1,-1.05 -1.34,-1.73 -0.35,-0.69 -0.52,-1.46 -0.52,-2.32 0,-0.93 0.22,-1.79 0.65,-2.59 0.43,-0.8 0.98,-1.5 1.67,-2.08 0.68,-0.59 1.45,-1.05 2.3,-1.38 0.85,-0.33 1.69,-0.5 2.55,-0.5 1.06,0 1.96,0.15 2.71,0.44 0.75,0.29 1.37,0.69 1.86,1.2 0.49,0.51 0.85,1.1 1.08,1.76 0.24,0.66 0.36,1.38 0.36,2.13 0,0.99 -0.2,1.89 -0.6,2.69 -0.4,0.8 -0.94,1.49 -1.62,2.07 -0.67,0.58 -1.44,1.01 -2.3,1.32 -0.86,0.3 -1.73,0.45 -2.62,0.45zm-8.21 34.81l3.96 -0.82 0 -18.22 -3.75 -4.21 0 -2.72 11.59 -3.75 2.49 0.73 0 28.22 4.22 0.77 0 3.97 -18.51 0 0 -3.97zm27.59 -34.81c-0.76,0 -1.51,-0.13 -2.24,-0.38 -0.74,-0.25 -1.38,-0.61 -1.94,-1.08 -0.54,-0.47 -0.99,-1.05 -1.33,-1.73 -0.35,-0.69 -0.52,-1.46 -0.52,-2.32 0,-0.93 0.22,-1.79 0.65,-2.59 0.43,-0.8 0.97,-1.5 1.66,-2.08 0.68,-0.59 1.45,-1.05 2.3,-1.38 0.85,-0.33 1.7,-0.5 2.56,-0.5 1.06,0 1.96,0.15 2.71,0.44 0.75,0.29 1.37,0.69 1.86,1.2 0.48,0.51 0.84,1.1 1.07,1.76 0.24,0.66 0.36,1.38 0.36,2.13 0,0.99 -0.2,1.89 -0.6,2.69 -0.4,0.8 -0.93,1.49 -1.61,2.07 -0.67,0.58 -1.44,1.01 -2.3,1.32 -0.86,0.3 -1.73,0.45 -2.63,0.45zm-8.2 34.81l3.95 -0.82 0 -18.22 -3.74 -4.21 0 -2.72 11.59 -3.75 2.48 0.73 0 28.22 4.22 0.77 0 3.97 -18.5 0 0 -3.97zm19.94 0l3.63 -0.74 0 -19.26 -3.98 -2.81 0 -3.69 10.89 -3.22 2.17 0.56 0 4.33c0.6,-0.64 1.31,-1.25 2.12,-1.83 0.81,-0.58 1.68,-1.09 2.61,-1.54 0.93,-0.45 1.89,-0.81 2.9,-1.1 1.02,-0.28 2.03,-0.45 3.05,-0.51 1.05,-0.06 2.09,-0.03 3.11,0.09 1.01,0.12 1.95,0.35 2.82,0.7 0.86,0.35 1.64,0.85 2.34,1.48 0.69,0.64 1.25,1.43 1.68,2.39 0.61,-0.57 1.28,-1.12 2.02,-1.67 0.74,-0.55 1.56,-1.04 2.45,-1.47 0.89,-0.42 1.86,-0.77 2.9,-1.04 1.06,-0.26 2.21,-0.39 3.46,-0.39 1.93,0 3.59,0.31 4.98,0.94 1.39,0.62 2.52,1.53 3.4,2.72 0.89,1.19 1.55,2.65 1.97,4.38 0.42,1.72 0.63,3.7 0.63,5.92l0 14.96 4.1 0.8 0 3.97 -17.89 0 0 -3.97 3.43 -0.82 0 -13.62c0,-1.87 -0.12,-3.38 -0.34,-4.51 -0.23,-1.13 -0.58,-2 -1.07,-2.61 -0.49,-0.62 -1.12,-1.02 -1.89,-1.22 -0.77,-0.19 -1.68,-0.29 -2.76,-0.29 -0.68,0 -1.41,0.15 -2.2,0.45 -0.78,0.31 -1.46,0.65 -2.05,1.04 0.1,0.49 0.17,1.1 0.22,1.82 0.05,0.74 0.08,1.78 0.08,3.12l0 15.84 4.16 0.8 0 3.97 -18.68 0 0 -3.97 4.15 -0.85 0 -13.79c0,-1.88 -0.14,-3.39 -0.43,-4.53 -0.3,-1.13 -0.72,-2.01 -1.28,-2.61 -0.56,-0.61 -1.25,-0.98 -2.08,-1.13 -0.83,-0.15 -1.77,-0.18 -2.85,-0.1 -0.23,0.02 -0.53,0.07 -0.9,0.16 -0.37,0.09 -0.75,0.2 -1.12,0.34 -0.37,0.13 -0.72,0.28 -1.04,0.45 -0.32,0.17 -0.56,0.34 -0.71,0.51l0 20.73 3.83 0.82 0 3.97 -17.83 0 0 -3.97z"/>
  <g id="_2794517619872">
   <path class="fil0" d="M156.51 70.02c0,0.52 0.02,0.93 0.05,1.23 0.03,0.3 0.1,0.54 0.21,0.7 0.11,0.17 0.28,0.28 0.5,0.33 0.22,0.05 0.53,0.09 0.91,0.11l0 0.77 -6.04 0 0 -0.77c0.38,-0.02 0.69,-0.06 0.92,-0.11 0.23,-0.05 0.4,-0.15 0.52,-0.31 0.11,-0.15 0.19,-0.37 0.22,-0.66 0.03,-0.29 0.05,-0.67 0.05,-1.16l0 -7.88c0,-0.77 -0.01,-1.37 -0.03,-1.82 -0.02,-0.44 -0.06,-0.77 -0.11,-1 -0.04,-0.17 -0.08,-0.3 -0.13,-0.4 -0.05,-0.09 -0.13,-0.17 -0.24,-0.23 -0.11,-0.05 -0.26,-0.09 -0.44,-0.11 -0.19,-0.02 -0.42,-0.03 -0.7,-0.03l0 -0.71 4.27 -0.73 0 7.08 0.08 0c0.4,-0.52 0.84,-0.91 1.33,-1.15 0.5,-0.24 1.09,-0.37 1.78,-0.37 1.25,0 2.22,0.39 2.91,1.15 0.34,0.39 0.6,0.85 0.79,1.4 0.19,0.54 0.29,1.1 0.29,1.69l0 2.98c0,0.53 0.01,0.95 0.04,1.25 0.02,0.3 0.09,0.53 0.2,0.69 0.11,0.16 0.27,0.27 0.49,0.32 0.21,0.05 0.51,0.09 0.9,0.11l0 0.77 -6.01 0 0 -0.77c0.39,-0.01 0.69,-0.04 0.91,-0.1 0.23,-0.06 0.4,-0.16 0.52,-0.32 0.12,-0.15 0.2,-0.37 0.23,-0.66 0.03,-0.29 0.05,-0.67 0.05,-1.16l0 -2.36c0,-1.35 -0.15,-2.31 -0.44,-2.88 -0.29,-0.56 -0.8,-0.84 -1.52,-0.84 -0.76,0 -1.37,0.28 -1.82,0.84 -0.22,0.3 -0.38,0.66 -0.51,1.1 -0.12,0.43 -0.18,0.92 -0.18,1.46l0 2.55zm15.31 -7.22c0.77,0 1.49,0.14 2.18,0.4 0.68,0.26 1.28,0.62 1.8,1.08 0.52,0.46 0.93,1.01 1.23,1.64 0.3,0.63 0.45,1.33 0.45,2.08 0,0.78 -0.15,1.5 -0.45,2.15 -0.3,0.65 -0.71,1.22 -1.23,1.69 -0.52,0.47 -1.12,0.84 -1.8,1.11 -0.69,0.27 -1.41,0.4 -2.18,0.4 -0.76,0 -1.47,-0.13 -2.15,-0.39 -0.68,-0.26 -1.27,-0.63 -1.78,-1.1 -0.52,-0.48 -0.92,-1.04 -1.21,-1.7 -0.3,-0.66 -0.44,-1.38 -0.44,-2.16 0,-0.75 0.14,-1.45 0.44,-2.09 0.29,-0.64 0.69,-1.19 1.21,-1.65 0.51,-0.46 1.1,-0.82 1.78,-1.07 0.68,-0.26 1.39,-0.39 2.15,-0.39zm0 1.12c-0.38,0 -0.74,0.1 -1.06,0.29 -0.32,0.2 -0.59,0.48 -0.81,0.84 -0.23,0.36 -0.4,0.79 -0.52,1.29 -0.12,0.51 -0.18,1.07 -0.18,1.68 0,0.64 0.06,1.22 0.18,1.73 0.12,0.51 0.29,0.94 0.52,1.3 0.22,0.36 0.49,0.64 0.8,0.84 0.32,0.19 0.67,0.29 1.07,0.29 0.4,0 0.76,-0.1 1.08,-0.29 0.33,-0.2 0.61,-0.48 0.84,-0.85 0.23,-0.36 0.41,-0.8 0.53,-1.31 0.13,-0.51 0.2,-1.08 0.2,-1.71 0,-0.61 -0.07,-1.17 -0.2,-1.67 -0.12,-0.5 -0.3,-0.93 -0.53,-1.29 -0.23,-0.37 -0.51,-0.65 -0.84,-0.85 -0.32,-0.19 -0.68,-0.29 -1.08,-0.29zm12.66 -1.12c0.77,0 1.49,0.14 2.18,0.4 0.68,0.26 1.28,0.62 1.8,1.08 0.52,0.46 0.93,1.01 1.23,1.64 0.3,0.63 0.45,1.33 0.45,2.08 0,0.78 -0.15,1.5 -0.45,2.15 -0.3,0.65 -0.71,1.22 -1.23,1.69 -0.52,0.47 -1.12,0.84 -1.8,1.11 -0.69,0.27 -1.41,0.4 -2.18,0.4 -0.76,0 -1.47,-0.13 -2.15,-0.39 -0.68,-0.26 -1.27,-0.63 -1.78,-1.1 -0.51,-0.48 -0.92,-1.04 -1.21,-1.7 -0.3,-0.66 -0.44,-1.38 -0.44,-2.16 0,-0.75 0.14,-1.45 0.44,-2.09 0.29,-0.64 0.7,-1.19 1.21,-1.65 0.51,-0.46 1.1,-0.82 1.78,-1.07 0.68,-0.26 1.39,-0.39 2.15,-0.39zm0 1.12c-0.38,0 -0.74,0.1 -1.06,0.29 -0.32,0.2 -0.59,0.48 -0.81,0.84 -0.23,0.36 -0.4,0.79 -0.52,1.29 -0.12,0.51 -0.18,1.07 -0.18,1.68 0,0.64 0.06,1.22 0.18,1.73 0.12,0.51 0.29,0.94 0.52,1.3 0.22,0.36 0.49,0.64 0.8,0.84 0.32,0.19 0.67,0.29 1.07,0.29 0.4,0 0.76,-0.1 1.08,-0.29 0.33,-0.2 0.61,-0.48 0.84,-0.85 0.23,-0.36 0.41,-0.8 0.53,-1.31 0.13,-0.51 0.2,-1.08 0.2,-1.71 0,-0.61 -0.07,-1.17 -0.2,-1.67 -0.12,-0.5 -0.3,-0.93 -0.53,-1.29 -0.23,-0.37 -0.51,-0.65 -0.84,-0.85 -0.32,-0.19 -0.68,-0.29 -1.08,-0.29zm11.11 6.1c0,0.51 0.01,0.92 0.05,1.22 0.04,0.31 0.12,0.55 0.23,0.71 0.12,0.17 0.28,0.28 0.5,0.34 0.22,0.06 0.51,0.09 0.88,0.1l0 0.77 -6.04 0 0 -0.77c0.36,-0.01 0.65,-0.05 0.87,-0.12 0.23,-0.07 0.4,-0.19 0.52,-0.34 0.12,-0.16 0.21,-0.39 0.25,-0.68 0.05,-0.28 0.07,-0.65 0.07,-1.1l0 -7.92c0,-0.74 -0.01,-1.35 -0.04,-1.83 -0.02,-0.48 -0.06,-0.81 -0.1,-0.99 -0.06,-0.32 -0.2,-0.53 -0.43,-0.63 -0.22,-0.11 -0.63,-0.16 -1.21,-0.16l0 -0.65 4.45 -0.73 0 12.78zm7 0c0,0.51 0.02,0.92 0.05,1.22 0.04,0.31 0.12,0.55 0.23,0.71 0.12,0.17 0.29,0.28 0.5,0.34 0.22,0.06 0.51,0.09 0.89,0.1l0 0.77 -6.05 0 0 -0.77c0.36,-0.01 0.65,-0.05 0.88,-0.12 0.22,-0.07 0.39,-0.19 0.51,-0.34 0.13,-0.16 0.21,-0.39 0.25,-0.68 0.05,-0.28 0.07,-0.65 0.07,-1.1l0 -2.36c0,-0.74 -0.01,-1.35 -0.04,-1.83 -0.02,-0.48 -0.06,-0.81 -0.09,-0.99 -0.07,-0.32 -0.21,-0.53 -0.44,-0.63 -0.22,-0.1 -0.63,-0.15 -1.21,-0.15l0 -0.66 4.45 -0.73 0 7.22zm-2.82 -11.28c0,-0.42 0.14,-0.78 0.43,-1.07 0.29,-0.28 0.63,-0.43 1.04,-0.43 0.43,0 0.78,0.15 1.07,0.43 0.29,0.29 0.43,0.65 0.43,1.07 0,0.41 -0.14,0.76 -0.43,1.04 -0.29,0.29 -0.64,0.43 -1.07,0.43 -0.41,0 -0.75,-0.14 -1.04,-0.43 -0.29,-0.28 -0.43,-0.63 -0.43,-1.04zm5.29 5.31l0 -0.86c0.77,-0.22 1.41,-0.55 1.93,-0.99 0.52,-0.44 0.9,-0.95 1.16,-1.53l0.98 0 0 2.33 2.2 0 0 1.05 -2.2 0 0 5.89c0,0.79 0.08,1.36 0.26,1.69 0.17,0.33 0.46,0.5 0.87,0.5 0.5,0 0.88,-0.23 1.13,-0.69l0.4 0.55c-0.35,0.91 -1.2,1.36 -2.53,1.36 -0.88,0 -1.57,-0.2 -2.06,-0.61 -0.49,-0.41 -0.74,-0.98 -0.74,-1.73l0 -6.96 -1.4 0zm8.48 9.11l-0.59 0 0 -3.49 0.8 0c0.22,0.92 0.53,1.59 0.94,2.02 0.41,0.42 0.94,0.63 1.59,0.63 0.48,0 0.84,-0.1 1.11,-0.3 0.26,-0.2 0.39,-0.47 0.39,-0.81 0,-0.36 -0.16,-0.71 -0.48,-1.05 -0.32,-0.34 -0.84,-0.7 -1.55,-1.08 -0.98,-0.53 -1.67,-1.05 -2.1,-1.57 -0.42,-0.51 -0.63,-1.1 -0.63,-1.75 0,-0.42 0.08,-0.82 0.24,-1.18 0.16,-0.37 0.38,-0.68 0.65,-0.95 0.28,-0.27 0.61,-0.48 0.99,-0.62 0.39,-0.15 0.8,-0.23 1.25,-0.23 0.4,0 0.79,0.06 1.18,0.18 0.39,0.11 0.73,0.27 1.02,0.48l0.35 -0.46 0.5 0 0 2.89 -0.75 0c-0.29,-0.73 -0.6,-1.25 -0.91,-1.57 -0.31,-0.32 -0.69,-0.48 -1.14,-0.48 -0.36,0 -0.64,0.1 -0.86,0.29 -0.21,0.19 -0.31,0.45 -0.31,0.77 0,0.35 0.15,0.69 0.47,1.01 0.31,0.32 0.83,0.67 1.56,1.06 0.51,0.28 0.95,0.55 1.32,0.82 0.38,0.27 0.68,0.54 0.91,0.82 0.23,0.27 0.4,0.56 0.5,0.86 0.11,0.3 0.17,0.62 0.17,0.97 0,0.45 -0.09,0.85 -0.25,1.21 -0.17,0.36 -0.4,0.66 -0.71,0.92 -0.31,0.25 -0.68,0.45 -1.1,0.59 -0.43,0.14 -0.91,0.21 -1.43,0.21 -0.55,0 -1.06,-0.07 -1.54,-0.22 -0.47,-0.14 -0.86,-0.36 -1.17,-0.64l-0.42 0.67zm17.67 -1.78c-1.17,1.32 -2.62,1.97 -4.36,1.97 -0.79,0 -1.51,-0.12 -2.16,-0.37 -0.64,-0.25 -1.19,-0.6 -1.66,-1.05 -0.46,-0.46 -0.81,-1 -1.07,-1.63 -0.26,-0.62 -0.38,-1.32 -0.38,-2.09 0,-0.79 0.13,-1.52 0.4,-2.17 0.27,-0.66 0.65,-1.23 1.14,-1.71 0.49,-0.48 1.08,-0.85 1.75,-1.12 0.67,-0.27 1.41,-0.41 2.21,-0.41 1.36,0 2.41,0.37 3.17,1.1 0.75,0.73 1.13,1.75 1.13,3.07 0,0.2 -0.03,0.33 -0.1,0.37 -0.06,0.05 -0.24,0.07 -0.53,0.07l-6.18 0c-0.05,0.11 -0.08,0.32 -0.08,0.63 0,1.25 0.27,2.25 0.82,2.97 0.54,0.73 1.28,1.1 2.21,1.1 0.54,0 1.07,-0.12 1.61,-0.37 0.53,-0.24 1.04,-0.59 1.54,-1.03l0.54 0.67zm-3.72 -5.05c0.51,0 0.84,-0.03 0.98,-0.08 0.15,-0.06 0.22,-0.2 0.22,-0.42 0,-0.56 -0.16,-1.02 -0.48,-1.38 -0.32,-0.35 -0.72,-0.53 -1.2,-0.53 -0.55,0 -1.04,0.22 -1.47,0.68 -0.43,0.45 -0.71,1.03 -0.84,1.73l2.79 0zm6.25 -0.86c-0.14,-0.37 -0.28,-0.67 -0.4,-0.89 -0.13,-0.23 -0.26,-0.4 -0.4,-0.52 -0.13,-0.12 -0.28,-0.2 -0.44,-0.24 -0.16,-0.04 -0.35,-0.06 -0.56,-0.06l0 -0.76 5.73 0 0 0.76c-0.32,0 -0.57,0.02 -0.76,0.04 -0.18,0.03 -0.32,0.07 -0.42,0.12 -0.09,0.05 -0.16,0.11 -0.18,0.2 -0.03,0.08 -0.04,0.17 -0.04,0.28 0,0.16 0.03,0.35 0.1,0.57 0.06,0.22 0.14,0.44 0.23,0.65l1.82 5.03 0.08 0 2.05 -5.01c0.09,-0.21 0.16,-0.41 0.21,-0.58 0.05,-0.17 0.08,-0.33 0.08,-0.47 0,-0.28 -0.1,-0.49 -0.29,-0.62 -0.19,-0.12 -0.53,-0.19 -1.02,-0.21l0 -0.76 4.24 0 0 0.76c-0.34,0 -0.64,0.09 -0.89,0.27 -0.25,0.18 -0.51,0.58 -0.78,1.19l-3.59 8.13 -1.74 0 -3.03 -7.88zm16.38 2.23c-1.07,0.48 -1.88,0.93 -2.43,1.35 -0.54,0.41 -0.81,0.84 -0.81,1.29 0,0.37 0.1,0.67 0.3,0.88 0.21,0.22 0.47,0.33 0.77,0.33 0.31,0 0.6,-0.05 0.87,-0.16 0.26,-0.11 0.49,-0.25 0.69,-0.43 0.19,-0.18 0.34,-0.4 0.45,-0.65 0.11,-0.25 0.16,-0.51 0.16,-0.79l0 -1.82zm0 -1.02l0 -0.81c0,-0.74 -0.13,-1.28 -0.39,-1.62 -0.27,-0.34 -0.67,-0.51 -1.22,-0.51 -0.37,0 -0.65,0.1 -0.85,0.3 -0.19,0.2 -0.37,0.53 -0.53,0.99 -0.12,0.32 -0.28,0.57 -0.49,0.75 -0.21,0.18 -0.5,0.27 -0.87,0.27 -0.36,0 -0.64,-0.11 -0.83,-0.33 -0.19,-0.22 -0.29,-0.52 -0.29,-0.92 0,-0.61 0.34,-1.1 1.01,-1.46 0.67,-0.36 1.68,-0.54 3.04,-0.54 1.43,0 2.46,0.26 3.07,0.78 0.61,0.52 0.92,1.39 0.92,2.6l0 4.2c0,1.09 0.22,1.63 0.65,1.63 0.25,0 0.47,-0.08 0.67,-0.25l0.29 0.56c-0.18,0.32 -0.46,0.57 -0.83,0.76 -0.38,0.18 -0.81,0.27 -1.28,0.27 -0.59,0 -1.03,-0.17 -1.34,-0.53 -0.31,-0.36 -0.46,-0.87 -0.46,-1.52l-0.1 0c-0.37,0.67 -0.85,1.17 -1.44,1.52 -0.58,0.34 -1.26,0.51 -2.01,0.51 -0.81,0 -1.45,-0.22 -1.94,-0.68 -0.48,-0.45 -0.73,-1.04 -0.73,-1.77 0,-0.56 0.25,-1.09 0.75,-1.58 0.5,-0.5 1.33,-0.98 2.5,-1.45l2.7 -1.17zm4.89 -2.63l0 -0.86c0.77,-0.22 1.41,-0.55 1.93,-0.99 0.52,-0.44 0.9,-0.95 1.16,-1.53l0.98 0 0 2.33 2.2 0 0 1.05 -2.2 0 0 5.89c0,0.79 0.08,1.36 0.26,1.69 0.17,0.33 0.46,0.5 0.87,0.5 0.5,0 0.88,-0.23 1.13,-0.69l0.4 0.55c-0.35,0.91 -1.2,1.36 -2.53,1.36 -0.88,0 -1.57,-0.2 -2.06,-0.61 -0.49,-0.41 -0.74,-0.98 -0.74,-1.73l0 -6.96 -1.4 0zm17.21 7.33c-1.17,1.32 -2.62,1.97 -4.36,1.97 -0.79,0 -1.51,-0.12 -2.15,-0.37 -0.65,-0.25 -1.2,-0.6 -1.66,-1.05 -0.46,-0.46 -0.82,-1 -1.08,-1.63 -0.25,-0.62 -0.38,-1.32 -0.38,-2.09 0,-0.79 0.13,-1.52 0.4,-2.17 0.27,-0.66 0.65,-1.23 1.14,-1.71 0.49,-0.48 1.08,-0.85 1.75,-1.12 0.67,-0.27 1.41,-0.41 2.21,-0.41 1.36,0 2.41,0.37 3.17,1.1 0.75,0.73 1.13,1.75 1.13,3.07 0,0.2 -0.03,0.33 -0.1,0.37 -0.06,0.05 -0.24,0.07 -0.53,0.07l-6.18 0c-0.05,0.11 -0.08,0.32 -0.08,0.63 0,1.25 0.28,2.25 0.82,2.97 0.54,0.73 1.28,1.1 2.21,1.1 0.54,0 1.08,-0.12 1.61,-0.37 0.53,-0.24 1.04,-0.59 1.54,-1.03l0.54 0.67zm-3.72 -5.05c0.51,0 0.84,-0.03 0.98,-0.08 0.15,-0.06 0.22,-0.2 0.22,-0.42 0,-0.56 -0.16,-1.02 -0.48,-1.38 -0.31,-0.35 -0.72,-0.53 -1.2,-0.53 -0.55,0 -1.04,0.22 -1.47,0.68 -0.43,0.45 -0.71,1.03 -0.84,1.73l2.79 0zm13.86 -2.09l0.08 0c0.85,-0.96 1.95,-1.44 3.3,-1.44 0.74,0 1.42,0.14 2.04,0.4 0.62,0.26 1.16,0.62 1.61,1.09 0.46,0.47 0.81,1.02 1.06,1.67 0.25,0.65 0.37,1.35 0.37,2.12 0,0.77 -0.12,1.47 -0.37,2.11 -0.25,0.64 -0.6,1.19 -1.05,1.67 -0.44,0.47 -0.98,0.84 -1.6,1.1 -0.62,0.26 -1.29,0.39 -2.02,0.39 -1.24,0 -2.19,-0.42 -2.84,-1.26l-0.08 0 0 2.66c0,0.52 0.03,0.93 0.08,1.23 0.05,0.31 0.16,0.55 0.33,0.71 0.16,0.17 0.4,0.28 0.7,0.35 0.3,0.06 0.7,0.1 1.2,0.11l0 0.81 -6.62 0 0 -0.81c0.34,-0.01 0.62,-0.05 0.84,-0.11 0.22,-0.07 0.39,-0.18 0.51,-0.35 0.12,-0.16 0.2,-0.39 0.25,-0.68 0.04,-0.29 0.07,-0.66 0.07,-1.12l0 -7.14c0,-0.59 -0.02,-1.14 -0.04,-1.68 -0.03,-0.53 -0.06,-0.9 -0.1,-1.12 -0.06,-0.29 -0.21,-0.5 -0.43,-0.61 -0.22,-0.12 -0.6,-0.17 -1.14,-0.17l0 -0.75 3.85 -0.54 0 1.36zm3.27 -0.34c-0.41,0 -0.8,0.09 -1.17,0.27 -0.38,0.18 -0.67,0.41 -0.89,0.71 -0.21,0.29 -0.38,0.66 -0.5,1.1 -0.11,0.44 -0.17,0.92 -0.17,1.43l0 1.3c0,0.91 0.23,1.68 0.67,2.32 0.49,0.71 1.17,1.06 2.06,1.06 0.78,0 1.35,-0.32 1.73,-0.97 0.38,-0.65 0.57,-1.65 0.57,-3 0,-2.82 -0.77,-4.22 -2.3,-4.22zm10.66 6.12c0,0.51 0.02,0.92 0.06,1.22 0.04,0.31 0.11,0.55 0.23,0.71 0.11,0.17 0.28,0.28 0.5,0.34 0.21,0.06 0.51,0.09 0.88,0.1l0 0.77 -6.04 0 0 -0.77c0.36,-0.01 0.65,-0.05 0.87,-0.12 0.22,-0.07 0.4,-0.19 0.52,-0.34 0.12,-0.16 0.2,-0.39 0.25,-0.68 0.04,-0.28 0.06,-0.65 0.06,-1.1l0 -7.92c0,-0.74 -0.01,-1.35 -0.03,-1.83 -0.03,-0.48 -0.06,-0.81 -0.1,-0.99 -0.06,-0.32 -0.21,-0.53 -0.43,-0.63 -0.23,-0.11 -0.63,-0.16 -1.22,-0.16l0 -0.65 4.45 -0.73 0 12.78zm7 0c0,0.51 0.02,0.92 0.06,1.22 0.04,0.31 0.11,0.55 0.23,0.71 0.12,0.17 0.28,0.28 0.5,0.34 0.22,0.06 0.51,0.09 0.88,0.1l0 0.77 -6.04 0 0 -0.77c0.36,-0.01 0.65,-0.05 0.87,-0.12 0.23,-0.07 0.4,-0.19 0.52,-0.34 0.12,-0.16 0.2,-0.39 0.25,-0.68 0.04,-0.28 0.07,-0.65 0.07,-1.1l0 -2.36c0,-0.74 -0.02,-1.35 -0.04,-1.83 -0.03,-0.48 -0.06,-0.81 -0.1,-0.99 -0.06,-0.32 -0.21,-0.53 -0.43,-0.63 -0.22,-0.1 -0.63,-0.15 -1.22,-0.15l0 -0.66 4.45 -0.73 0 7.22zm-2.82 -11.28c0,-0.42 0.15,-0.78 0.43,-1.07 0.29,-0.28 0.64,-0.43 1.05,-0.43 0.42,0 0.78,0.15 1.06,0.43 0.29,0.29 0.44,0.65 0.44,1.07 0,0.41 -0.15,0.76 -0.44,1.04 -0.28,0.29 -0.64,0.43 -1.06,0.43 -0.41,0 -0.76,-0.14 -1.05,-0.43 -0.28,-0.28 -0.43,-0.63 -0.43,-1.04zm11.68 13.65c0.41,0 0.7,-0.01 0.87,-0.04 0.16,-0.03 0.25,-0.1 0.25,-0.2 0,-0.08 -0.09,-0.27 -0.26,-0.57 -0.17,-0.3 -0.4,-0.65 -0.66,-1.05l-1.46 -2.18 -0.96 0.92 0 0.75c0,0.5 0.02,0.9 0.06,1.2 0.04,0.31 0.1,0.55 0.2,0.72 0.09,0.18 0.23,0.3 0.4,0.36 0.17,0.06 0.39,0.09 0.66,0.09l0 0.77 -5.66 0 0 -0.77c0.36,-0.01 0.65,-0.05 0.87,-0.11 0.21,-0.06 0.39,-0.18 0.52,-0.34 0.12,-0.16 0.21,-0.38 0.25,-0.67 0.05,-0.28 0.07,-0.66 0.07,-1.12l0 -8.13c0,-0.78 -0.01,-1.4 -0.04,-1.84 -0.02,-0.45 -0.09,-0.79 -0.2,-1.01 -0.11,-0.22 -0.27,-0.36 -0.5,-0.41 -0.22,-0.05 -0.52,-0.08 -0.91,-0.08l0 -0.71 4.28 -0.73 0 10.67 1.84 -1.75c0.67,-0.63 1.14,-1.1 1.42,-1.41 0.28,-0.31 0.42,-0.54 0.42,-0.68 0,-0.12 -0.12,-0.19 -0.35,-0.24 -0.24,-0.04 -0.68,-0.07 -1.32,-0.07l0 -0.76 5.24 0 0 0.76c-0.49,0 -0.91,0.09 -1.29,0.25 -0.37,0.17 -0.77,0.46 -1.2,0.87l-1.86 1.74 3.31 4.7c0.3,0.41 0.59,0.69 0.87,0.84 0.28,0.16 0.65,0.23 1.11,0.23l0 0.77 -5.97 0 0 -0.77zm12.47 -4.69c-1.07,0.48 -1.88,0.93 -2.42,1.35 -0.55,0.41 -0.82,0.84 -0.82,1.29 0,0.37 0.1,0.67 0.31,0.88 0.2,0.22 0.46,0.33 0.76,0.33 0.31,0 0.6,-0.05 0.87,-0.16 0.27,-0.11 0.5,-0.25 0.69,-0.43 0.19,-0.18 0.34,-0.4 0.45,-0.65 0.11,-0.25 0.16,-0.51 0.16,-0.79l0 -1.82zm0 -1.02l0 -0.81c0,-0.74 -0.13,-1.28 -0.39,-1.62 -0.26,-0.34 -0.67,-0.51 -1.22,-0.51 -0.37,0 -0.65,0.1 -0.84,0.3 -0.19,0.2 -0.37,0.53 -0.54,0.99 -0.11,0.32 -0.28,0.57 -0.49,0.75 -0.21,0.18 -0.5,0.27 -0.87,0.27 -0.36,0 -0.63,-0.11 -0.83,-0.33 -0.19,-0.22 -0.28,-0.52 -0.28,-0.92 0,-0.61 0.33,-1.1 1,-1.46 0.67,-0.36 1.69,-0.54 3.04,-0.54 1.44,0 2.46,0.26 3.07,0.78 0.62,0.52 0.92,1.39 0.92,2.6l0 4.2c0,1.09 0.22,1.63 0.66,1.63 0.24,0 0.46,-0.08 0.67,-0.25l0.28 0.56c-0.17,0.32 -0.45,0.57 -0.83,0.76 -0.38,0.18 -0.8,0.27 -1.28,0.27 -0.58,0 -1.03,-0.17 -1.34,-0.53 -0.31,-0.36 -0.46,-0.87 -0.46,-1.52l-0.09 0c-0.38,0.67 -0.86,1.17 -1.44,1.52 -0.59,0.34 -1.26,0.51 -2.02,0.51 -0.8,0 -1.45,-0.22 -1.93,-0.68 -0.49,-0.45 -0.73,-1.04 -0.73,-1.77 0,-0.56 0.25,-1.09 0.74,-1.58 0.5,-0.5 1.33,-0.98 2.5,-1.45l2.7 -1.17zm13.64 5.25l-0.08 0c-0.88,0.95 -2.02,1.42 -3.43,1.42 -0.73,0 -1.4,-0.12 -2,-0.38 -0.61,-0.26 -1.14,-0.61 -1.58,-1.07 -0.44,-0.46 -0.78,-1.01 -1.02,-1.64 -0.25,-0.64 -0.37,-1.34 -0.37,-2.1 0,-0.77 0.13,-1.48 0.38,-2.13 0.25,-0.66 0.58,-1.22 1.01,-1.7 0.43,-0.48 0.94,-0.85 1.54,-1.12 0.59,-0.27 1.24,-0.41 1.93,-0.41 0.63,0 1.2,0.1 1.69,0.29 0.5,0.19 0.93,0.52 1.3,0.98l0.07 0 0 -1.63c0,-0.75 -0.01,-1.4 -0.02,-1.95 -0.02,-0.54 -0.05,-0.9 -0.09,-1.06 -0.06,-0.27 -0.26,-0.47 -0.59,-0.59 -0.32,-0.12 -0.82,-0.18 -1.5,-0.18l0 -0.65 4.85 -0.77 0 10.97c0,0.96 0.01,1.7 0.03,2.22 0.02,0.52 0.05,0.91 0.11,1.18 0.02,0.16 0.06,0.3 0.11,0.4 0.05,0.1 0.13,0.18 0.23,0.24 0.1,0.06 0.24,0.1 0.41,0.12 0.18,0.02 0.4,0.02 0.67,0.02l0 0.75 -3.65 0.21 0 -1.42zm-0.59 -4.27c0,-0.49 -0.05,-0.94 -0.16,-1.36 -0.1,-0.41 -0.25,-0.78 -0.46,-1.1 -0.23,-0.37 -0.52,-0.65 -0.88,-0.84 -0.36,-0.19 -0.74,-0.29 -1.15,-0.29 -0.76,0 -1.33,0.35 -1.73,1.04 -0.39,0.69 -0.59,1.69 -0.59,3.01 0,1.33 0.2,2.35 0.59,3.07 0.4,0.71 0.97,1.07 1.71,1.07 0.42,0 0.82,-0.11 1.21,-0.33 0.38,-0.21 0.7,-0.51 0.94,-0.88 0.18,-0.28 0.31,-0.63 0.39,-1.04 0.08,-0.42 0.13,-0.95 0.13,-1.6l0 -0.75zm15.03 3.72c-1.16,1.32 -2.61,1.97 -4.35,1.97 -0.79,0 -1.51,-0.12 -2.16,-0.37 -0.64,-0.25 -1.2,-0.6 -1.66,-1.05 -0.46,-0.46 -0.81,-1 -1.07,-1.63 -0.26,-0.62 -0.38,-1.32 -0.38,-2.09 0,-0.79 0.13,-1.52 0.4,-2.17 0.27,-0.66 0.65,-1.23 1.14,-1.71 0.49,-0.48 1.07,-0.85 1.75,-1.12 0.67,-0.27 1.41,-0.41 2.21,-0.41 1.36,0 2.41,0.37 3.17,1.1 0.75,0.73 1.13,1.75 1.13,3.07 0,0.2 -0.03,0.33 -0.1,0.37 -0.06,0.05 -0.24,0.07 -0.54,0.07l-6.17 0c-0.05,0.11 -0.08,0.32 -0.08,0.63 0,1.25 0.27,2.25 0.82,2.97 0.54,0.73 1.28,1.1 2.21,1.1 0.54,0 1.07,-0.12 1.6,-0.37 0.53,-0.24 1.05,-0.59 1.55,-1.03l0.53 0.67zm-3.72 -5.05c0.52,0 0.84,-0.03 0.99,-0.08 0.15,-0.06 0.22,-0.2 0.22,-0.42 0,-0.56 -0.16,-1.02 -0.48,-1.38 -0.32,-0.35 -0.72,-0.53 -1.21,-0.53 -0.55,0 -1.03,0.22 -1.46,0.68 -0.43,0.45 -0.71,1.03 -0.84,1.73l2.78 0zm11.32 6.83l-0.59 0 0 -3.49 0.8 0c0.22,0.92 0.53,1.59 0.94,2.02 0.41,0.42 0.94,0.63 1.59,0.63 0.48,0 0.84,-0.1 1.11,-0.3 0.26,-0.2 0.39,-0.47 0.39,-0.81 0,-0.36 -0.16,-0.71 -0.48,-1.05 -0.32,-0.34 -0.84,-0.7 -1.55,-1.08 -0.98,-0.53 -1.67,-1.05 -2.09,-1.57 -0.43,-0.51 -0.64,-1.1 -0.64,-1.75 0,-0.42 0.08,-0.82 0.24,-1.18 0.16,-0.37 0.38,-0.68 0.65,-0.95 0.28,-0.27 0.61,-0.48 0.99,-0.62 0.39,-0.15 0.8,-0.23 1.25,-0.23 0.4,0 0.79,0.06 1.18,0.18 0.39,0.11 0.73,0.27 1.03,0.48l0.34 -0.46 0.5 0 0 2.89 -0.75 0c-0.29,-0.73 -0.6,-1.25 -0.91,-1.57 -0.31,-0.32 -0.69,-0.48 -1.14,-0.48 -0.36,0 -0.64,0.1 -0.85,0.29 -0.22,0.19 -0.32,0.45 -0.32,0.77 0,0.35 0.16,0.69 0.47,1.01 0.31,0.32 0.83,0.67 1.56,1.06 0.51,0.28 0.95,0.55 1.33,0.82 0.37,0.27 0.67,0.54 0.9,0.82 0.23,0.27 0.4,0.56 0.51,0.86 0.1,0.3 0.16,0.62 0.16,0.97 0,0.45 -0.08,0.85 -0.25,1.21 -0.17,0.36 -0.4,0.66 -0.71,0.92 -0.31,0.25 -0.67,0.45 -1.1,0.59 -0.43,0.14 -0.91,0.21 -1.43,0.21 -0.55,0 -1.06,-0.07 -1.54,-0.22 -0.47,-0.14 -0.86,-0.36 -1.17,-0.64l-0.42 0.67z"/>
   <path class="fil0" d="M377.97 71.38c-1.17,1.32 -2.62,1.97 -4.36,1.97 -0.79,0 -1.51,-0.12 -2.15,-0.37 -0.65,-0.25 -1.2,-0.6 -1.66,-1.05 -0.46,-0.46 -0.82,-1 -1.08,-1.63 -0.25,-0.62 -0.38,-1.32 -0.38,-2.09 0,-0.79 0.13,-1.52 0.4,-2.17 0.27,-0.66 0.65,-1.23 1.14,-1.71 0.49,-0.48 1.08,-0.85 1.75,-1.12 0.67,-0.27 1.41,-0.41 2.21,-0.41 1.36,0 2.41,0.37 3.17,1.1 0.75,0.73 1.13,1.75 1.13,3.07 0,0.2 -0.03,0.33 -0.1,0.37 -0.06,0.05 -0.24,0.07 -0.53,0.07l-6.18 0c-0.05,0.11 -0.08,0.32 -0.08,0.63 0,1.25 0.28,2.25 0.82,2.97 0.54,0.73 1.28,1.1 2.21,1.1 0.54,0 1.08,-0.12 1.61,-0.37 0.53,-0.24 1.04,-0.59 1.54,-1.03l0.54 0.67zm-3.72 -5.05c0.51,0 0.84,-0.03 0.98,-0.08 0.15,-0.06 0.22,-0.2 0.22,-0.42 0,-0.56 -0.16,-1.02 -0.48,-1.38 -0.31,-0.35 -0.72,-0.53 -1.2,-0.53 -0.55,0 -1.04,0.22 -1.47,0.68 -0.43,0.45 -0.71,1.03 -0.84,1.73l2.79 0zm9.32 3.69c0,0.51 0.02,0.92 0.06,1.22 0.03,0.31 0.11,0.55 0.23,0.71 0.11,0.17 0.28,0.28 0.5,0.34 0.21,0.06 0.51,0.09 0.88,0.1l0 0.77 -6.04 0 0 -0.77c0.35,-0.01 0.64,-0.05 0.87,-0.12 0.22,-0.07 0.39,-0.19 0.52,-0.34 0.12,-0.16 0.2,-0.39 0.25,-0.68 0.04,-0.28 0.06,-0.65 0.06,-1.1l0 -7.92c0,-0.74 -0.01,-1.35 -0.04,-1.83 -0.02,-0.48 -0.05,-0.81 -0.09,-0.99 -0.07,-0.32 -0.21,-0.53 -0.43,-0.63 -0.23,-0.11 -0.63,-0.16 -1.22,-0.16l0 -0.65 4.45 -0.73 0 12.78zm2.55 -5.97l0 -0.86c0.77,-0.22 1.41,-0.55 1.93,-0.99 0.52,-0.44 0.9,-0.95 1.16,-1.53l0.98 0 0 2.33 2.2 0 0 1.05 -2.2 0 0 5.89c0,0.79 0.08,1.36 0.26,1.69 0.17,0.33 0.46,0.5 0.87,0.5 0.5,0 0.87,-0.23 1.13,-0.69l0.4 0.55c-0.36,0.91 -1.2,1.36 -2.53,1.36 -0.88,0 -1.57,-0.2 -2.06,-0.61 -0.49,-0.41 -0.74,-0.98 -0.74,-1.73l0 -6.96 -1.4 0zm8.48 9.11l-0.6 0 0 -3.49 0.81 0c0.22,0.92 0.53,1.59 0.94,2.02 0.41,0.42 0.94,0.63 1.59,0.63 0.47,0 0.84,-0.1 1.1,-0.3 0.27,-0.2 0.4,-0.47 0.4,-0.81 0,-0.36 -0.16,-0.71 -0.48,-1.05 -0.32,-0.34 -0.84,-0.7 -1.56,-1.08 -0.97,-0.53 -1.66,-1.05 -2.09,-1.57 -0.42,-0.51 -0.63,-1.1 -0.63,-1.75 0,-0.42 0.08,-0.82 0.24,-1.18 0.16,-0.37 0.38,-0.68 0.65,-0.95 0.28,-0.27 0.61,-0.48 0.99,-0.62 0.38,-0.15 0.8,-0.23 1.25,-0.23 0.39,0 0.79,0.06 1.18,0.18 0.39,0.11 0.73,0.27 1.02,0.48l0.35 -0.46 0.5 0 0 2.89 -0.75 0c-0.3,-0.73 -0.6,-1.25 -0.91,-1.57 -0.32,-0.32 -0.7,-0.48 -1.14,-0.48 -0.36,0 -0.65,0.1 -0.86,0.29 -0.21,0.19 -0.31,0.45 -0.31,0.77 0,0.35 0.15,0.69 0.47,1.01 0.31,0.32 0.83,0.67 1.56,1.06 0.51,0.28 0.95,0.55 1.32,0.82 0.37,0.27 0.67,0.54 0.9,0.82 0.23,0.27 0.4,0.56 0.51,0.86 0.11,0.3 0.17,0.62 0.17,0.97 0,0.45 -0.09,0.85 -0.25,1.21 -0.17,0.36 -0.41,0.66 -0.71,0.92 -0.31,0.25 -0.68,0.45 -1.11,0.59 -0.42,0.14 -0.9,0.21 -1.43,0.21 -0.54,0 -1.06,-0.07 -1.53,-0.22 -0.47,-0.14 -0.86,-0.36 -1.17,-0.64l-0.42 0.67zm14.17 -0.77c0.41,0 0.7,-0.01 0.87,-0.04 0.16,-0.03 0.25,-0.1 0.25,-0.2 0,-0.08 -0.09,-0.27 -0.26,-0.57 -0.18,-0.3 -0.4,-0.65 -0.66,-1.05l-1.46 -2.18 -0.96 0.92 0 0.75c0,0.5 0.02,0.9 0.06,1.2 0.03,0.31 0.1,0.55 0.2,0.72 0.09,0.18 0.23,0.3 0.4,0.36 0.17,0.06 0.39,0.09 0.66,0.09l0 0.77 -5.66 0 0 -0.77c0.36,-0.01 0.65,-0.05 0.87,-0.11 0.21,-0.06 0.39,-0.18 0.51,-0.34 0.13,-0.16 0.22,-0.38 0.26,-0.67 0.05,-0.28 0.07,-0.66 0.07,-1.12l0 -8.13c0,-0.78 -0.01,-1.4 -0.04,-1.84 -0.02,-0.45 -0.09,-0.79 -0.2,-1.01 -0.11,-0.22 -0.27,-0.36 -0.5,-0.41 -0.22,-0.05 -0.53,-0.08 -0.91,-0.08l0 -0.71 4.28 -0.73 0 10.67 1.84 -1.75c0.67,-0.63 1.14,-1.1 1.42,-1.41 0.28,-0.31 0.42,-0.54 0.42,-0.68 0,-0.12 -0.12,-0.19 -0.35,-0.24 -0.24,-0.04 -0.68,-0.07 -1.32,-0.07l0 -0.76 5.24 0 0 0.76c-0.49,0 -0.91,0.09 -1.29,0.25 -0.37,0.17 -0.77,0.46 -1.2,0.87l-1.86 1.74 3.31 4.7c0.3,0.41 0.59,0.69 0.87,0.84 0.28,0.16 0.65,0.23 1.11,0.23l0 0.77 -5.97 0 0 -0.77zm11.67 -9.59c0.76,0 1.49,0.14 2.17,0.4 0.69,0.26 1.29,0.62 1.81,1.08 0.51,0.46 0.92,1.01 1.22,1.64 0.3,0.63 0.46,1.33 0.46,2.08 0,0.78 -0.16,1.5 -0.46,2.15 -0.3,0.65 -0.71,1.22 -1.22,1.69 -0.52,0.47 -1.12,0.84 -1.81,1.11 -0.68,0.27 -1.41,0.4 -2.17,0.4 -0.76,0 -1.47,-0.13 -2.15,-0.39 -0.68,-0.26 -1.27,-0.63 -1.79,-1.1 -0.51,-0.48 -0.91,-1.04 -1.2,-1.7 -0.3,-0.66 -0.45,-1.38 -0.45,-2.16 0,-0.75 0.15,-1.45 0.45,-2.09 0.29,-0.64 0.69,-1.19 1.2,-1.65 0.52,-0.46 1.11,-0.82 1.79,-1.07 0.68,-0.26 1.39,-0.39 2.15,-0.39zm0 1.12c-0.39,0 -0.74,0.1 -1.06,0.29 -0.32,0.2 -0.59,0.48 -0.81,0.84 -0.23,0.36 -0.4,0.79 -0.52,1.29 -0.12,0.51 -0.18,1.07 -0.18,1.68 0,0.64 0.06,1.22 0.18,1.73 0.12,0.51 0.29,0.94 0.52,1.3 0.22,0.36 0.49,0.64 0.8,0.84 0.32,0.19 0.67,0.29 1.07,0.29 0.39,0 0.75,-0.1 1.08,-0.29 0.33,-0.2 0.6,-0.48 0.83,-0.85 0.23,-0.36 0.41,-0.8 0.54,-1.31 0.13,-0.51 0.19,-1.08 0.19,-1.71 0,-0.61 -0.06,-1.17 -0.19,-1.67 -0.13,-0.5 -0.31,-0.93 -0.54,-1.29 -0.23,-0.37 -0.5,-0.65 -0.83,-0.85 -0.33,-0.19 -0.69,-0.29 -1.08,-0.29zm11.29 6.12c0,0.52 0.02,0.93 0.05,1.23 0.03,0.3 0.1,0.53 0.21,0.69 0.11,0.16 0.28,0.27 0.5,0.32 0.23,0.05 0.53,0.09 0.91,0.11l0 0.77 -6.04 0 0 -0.77c0.37,-0.02 0.67,-0.06 0.89,-0.11 0.23,-0.05 0.4,-0.15 0.52,-0.31 0.12,-0.15 0.2,-0.37 0.24,-0.65 0.04,-0.28 0.06,-0.66 0.06,-1.15l0 -2.4c0,-0.75 -0.01,-1.36 -0.04,-1.83 -0.03,-0.47 -0.06,-0.78 -0.1,-0.95 -0.03,-0.17 -0.09,-0.3 -0.15,-0.41 -0.06,-0.11 -0.16,-0.19 -0.29,-0.25 -0.12,-0.06 -0.28,-0.1 -0.48,-0.12 -0.19,-0.02 -0.43,-0.02 -0.73,-0.02l0 -0.66 3.71 -0.73 0.25 1.69 0.07 0c0.42,-0.54 0.92,-0.95 1.5,-1.24 0.57,-0.3 1.21,-0.45 1.9,-0.45 0.82,0 1.48,0.12 1.98,0.34 0.51,0.22 0.96,0.6 1.36,1.12 0.21,0.3 0.4,0.68 0.57,1.14 0.17,0.47 0.25,1.11 0.25,1.93l0 2.71c0,0.52 0.02,0.93 0.05,1.23 0.03,0.3 0.1,0.53 0.21,0.69 0.11,0.16 0.27,0.27 0.49,0.32 0.22,0.05 0.51,0.09 0.88,0.11l0 0.77 -6 0 0 -0.77c0.38,-0.01 0.68,-0.04 0.91,-0.1 0.22,-0.06 0.39,-0.16 0.51,-0.32 0.11,-0.15 0.19,-0.37 0.23,-0.66 0.03,-0.29 0.05,-0.67 0.05,-1.14l0 -2.61c0,-0.65 -0.03,-1.2 -0.11,-1.65 -0.08,-0.45 -0.2,-0.81 -0.38,-1.08 -0.17,-0.28 -0.39,-0.48 -0.68,-0.6 -0.28,-0.12 -0.63,-0.18 -1.05,-0.18 -0.41,0 -0.76,0.12 -1.06,0.35 -0.29,0.23 -0.55,0.55 -0.76,0.96 -0.12,0.23 -0.22,0.52 -0.3,0.89 -0.08,0.36 -0.13,0.74 -0.13,1.14l0 2.65zm18.25 1.89l-0.08 0c-0.88,0.95 -2.03,1.42 -3.43,1.42 -0.73,0 -1.4,-0.12 -2.01,-0.38 -0.61,-0.26 -1.13,-0.61 -1.57,-1.07 -0.44,-0.46 -0.78,-1.01 -1.03,-1.64 -0.24,-0.64 -0.36,-1.34 -0.36,-2.1 0,-0.77 0.12,-1.48 0.37,-2.13 0.25,-0.66 0.59,-1.22 1.02,-1.7 0.43,-0.48 0.94,-0.85 1.53,-1.12 0.6,-0.27 1.24,-0.41 1.93,-0.41 0.64,0 1.21,0.1 1.7,0.29 0.49,0.19 0.92,0.52 1.29,0.98l0.08 0 0 -1.63c0,-0.75 -0.01,-1.4 -0.03,-1.95 -0.02,-0.54 -0.05,-0.9 -0.08,-1.06 -0.07,-0.27 -0.26,-0.47 -0.59,-0.59 -0.33,-0.12 -0.83,-0.18 -1.51,-0.18l0 -0.65 4.86 -0.77 0 10.97c0,0.96 0.01,1.7 0.03,2.22 0.02,0.52 0.05,0.91 0.1,1.18 0.03,0.16 0.07,0.3 0.12,0.4 0.05,0.1 0.12,0.18 0.23,0.24 0.1,0.06 0.24,0.1 0.41,0.12 0.17,0.02 0.39,0.02 0.66,0.02l0 0.75 -3.64 0.21 0 -1.42zm-0.6 -4.27c0,-0.49 -0.05,-0.94 -0.15,-1.36 -0.1,-0.41 -0.26,-0.78 -0.46,-1.1 -0.23,-0.37 -0.53,-0.65 -0.88,-0.84 -0.36,-0.19 -0.75,-0.29 -1.16,-0.29 -0.75,0 -1.33,0.35 -1.72,1.04 -0.4,0.69 -0.6,1.69 -0.6,3.01 0,1.33 0.2,2.35 0.6,3.07 0.39,0.71 0.96,1.07 1.71,1.07 0.42,0 0.82,-0.11 1.2,-0.33 0.39,-0.21 0.7,-0.51 0.94,-0.88 0.18,-0.28 0.31,-0.63 0.4,-1.04 0.08,-0.42 0.12,-0.95 0.12,-1.6l0 -0.75z"/>
  </g>
 </g>
</svg>
